<?xml version="1.0" encoding="utf-8"?>
<!-- Generator: Adobe Illustrator 22.0.1, SVG Export Plug-In . SVG Version: 6.00 Build 0)  -->
<svg version="1.1" id="Layer_1" xmlns="http://www.w3.org/2000/svg" xmlns:xlink="http://www.w3.org/1999/xlink" x="0px" y="0px"
	 viewBox="0 0 36 36" enable-background="new 0 0 36 36" xml:space="preserve">
<g>
	<path opacity="0.8" fill="none" stroke="#0B4F6C" stroke-miterlimit="10" d="M18,35.5C8.3,35.5,0.5,27.7,0.5,18S8.3,0.5,18,0.5
		S35.5,8.3,35.5,18S27.7,35.5,18,35.5"/>
	<path fill="#0B4F6C" stroke="none" stroke-width="0.2" stroke-miterlimit="10" d="M23.3,12.7c-1.4-1.4-3.2-2.2-5.3-2.2
		c-4.1,0-7.5,3.4-7.5,7.5s3.3,7.5,7.5,7.5c3.5,0,6.4-2.4,7.3-5.6h-2c-0.8,2.2-2.9,3.8-5.3,3.8c-3.1,0-5.6-2.5-5.6-5.6
		s2.5-5.6,5.6-5.6c1.6,0,2.9,0.6,4,1.7l-3,3h6.6v-6.6L23.3,12.7z"/>
</g>
</svg>
